<?xml version="1.0" encoding="utf-8"?>
<!-- Generator: Adobe Illustrator 15.1.0, SVG Export Plug-In . SVG Version: 6.00 Build 0)  -->
<!DOCTYPE svg PUBLIC "-//W3C//DTD SVG 1.1//EN" "http://www.w3.org/Graphics/SVG/1.1/DTD/svg11.dtd">
<svg version="1.1" id="Layer_1" xmlns="http://www.w3.org/2000/svg" xmlns:xlink="http://www.w3.org/1999/xlink" x="0px" y="0px"
	 width="216px" height="216px" viewBox="9 9 216 216" enable-background="new 9 9 216 216" xml:space="preserve">
<g>
	<circle fill="none" cx="117.734" cy="116.265" r="106.765"/>
	<g>
		<path d="M101.675,75.107l50.12,43.163l-50.12,43.151V75.107 M101.674,70.107c-0.706,0-1.417,0.149-2.083,0.455
			c-1.777,0.814-2.916,2.59-2.916,4.545v86.314c0,1.955,1.139,3.729,2.916,4.545c0.667,0.306,1.377,0.455,2.083,0.455
			c1.175,0,2.338-0.414,3.263-1.211l50.12-43.151c1.104-0.951,1.737-2.334,1.737-3.789c0-1.457-0.634-2.839-1.737-3.79
			l-50.12-43.162C104.013,70.522,102.85,70.107,101.674,70.107L101.674,70.107z"/>
	</g>
</g>
</svg>
