<?xml version="1.0" encoding="utf-8"?>
<!-- Generator: Adobe Illustrator 15.1.0, SVG Export Plug-In . SVG Version: 6.00 Build 0)  -->
<!DOCTYPE svg PUBLIC "-//W3C//DTD SVG 1.1//EN" "http://www.w3.org/Graphics/SVG/1.1/DTD/svg11.dtd">
<svg version="1.1" id="Layer_1" xmlns="http://www.w3.org/2000/svg" xmlns:xlink="http://www.w3.org/1999/xlink" x="0px" y="0px"
	 width="216px" height="216px" viewBox="9 9 216 216" enable-background="new 9 9 216 216" xml:space="preserve">
<g>
	<circle fill="none" cx="117.734" cy="116.265" r="106.765"/>
	<g>
		<g>
			<g>
				<path d="M145.449,73.314v85.9H84.027v-64.97l20.924-20.93H145.449 M145.449,68.314H104.95c-1.326,0-2.598,0.527-3.536,1.465
					L80.49,90.709c-0.938,0.938-1.464,2.209-1.464,3.535v64.971c0,2.762,2.239,5,5,5h61.422c2.762,0,5-2.238,5-5v-85.9
					C150.449,70.553,148.211,68.314,145.449,68.314L145.449,68.314z"/>
			</g>
		</g>
		<g>
			<path fill="none" stroke="#000000" stroke-width="5" stroke-linecap="round" stroke-linejoin="round" stroke-miterlimit="10" d="
				M104.951,73.314v20.049c0,0.486-0.397,0.883-0.883,0.883H84.021"/>
		</g>
	</g>
</g>
</svg>
