<?xml version="1.0" encoding="utf-8"?>
<!-- Generator: Adobe Illustrator 15.1.0, SVG Export Plug-In . SVG Version: 6.00 Build 0)  -->
<!DOCTYPE svg PUBLIC "-//W3C//DTD SVG 1.1//EN" "http://www.w3.org/Graphics/SVG/1.1/DTD/svg11.dtd">
<svg version="1.1" id="Layer_1" xmlns="http://www.w3.org/2000/svg" xmlns:xlink="http://www.w3.org/1999/xlink" x="0px" y="0px"
	 width="216px" height="216px" viewBox="9 9 216 216" enable-background="new 9 9 216 216" xml:space="preserve">
<g>
	<circle fill="none" cx="117.734" cy="116.265" r="106.765"/>
	<g>
		<path d="M99.889,75.568c0.059,0,0.132,0.039,0.21,0.119l45.271,46.695c0.198,0.205,0.131,0.406-0.152,0.445l-17.434,2.405
			c-0.283,0.039-0.427,0.287-0.316,0.552l12.539,30.356c0.109,0.267-0.019,0.569-0.28,0.683l-10.017,4.19
			c-0.063,0.026-0.132,0.038-0.198,0.038c-0.203,0-0.396-0.12-0.479-0.319l-12.604-30.522c-0.071-0.172-0.215-0.269-0.372-0.269
			c-0.084,0-0.171,0.026-0.253,0.084l-15.64,10.886c-0.076,0.053-0.148,0.078-0.21,0.078c-0.129,0-0.216-0.109-0.216-0.302V75.834
			C99.737,75.661,99.797,75.568,99.889,75.568 M99.889,70.568c-2.889,0-5.152,2.313-5.152,5.266v64.855
			c0,2.973,2.292,5.301,5.216,5.301c1.088,0,2.147-0.336,3.062-0.973l10.966-7.633l10.429,25.258
			c0.855,2.072,2.857,3.412,5.102,3.412c0.733,0,1.449-0.145,2.129-0.43l10.017-4.189c2.796-1.17,4.129-4.4,2.972-7.203
			l-10.27-24.859l11.541-1.592c2.011-0.277,3.658-1.613,4.304-3.486s0.167-3.941-1.246-5.395l-45.269-46.693
			C102.665,71.15,101.315,70.568,99.889,70.568L99.889,70.568z"/>
	</g>
</g>
</svg>
